<svg xmlns="http://www.w3.org/2000/svg" viewBox="0 0 64 64" role="img" aria-label="SL">
  <defs>
    <linearGradient id="g-gold" x1="0%" y1="0%" x2="100%" y2="100%">
      <stop offset="0%" stop-color="#f0c84a"/>
      <stop offset="100%" stop-color="#d4af37"/>
    </linearGradient>
    <linearGradient id="g-dark" x1="0%" y1="0%" x2="0%" y2="100%">
      <stop offset="0%" stop-color="#1a3a24"/>
      <stop offset="100%" stop-color="#0d2218"/>
    </linearGradient>
  </defs>
  <!-- Arch -->
  <path d="M8 46 Q8 10 32 6 Q56 10 56 46 L56 58 Q56 60 54 60 L10 60 Q8 60 8 58 Z"
        fill="url(#g-dark)" stroke="url(#g-gold)" stroke-width="2"/>
  <!-- Book -->
  <g transform="translate(32, 36)">
    <path d="M0 0 Q-11-3 -16 3 L-16 15 Q-11 9 0 6 Z" fill="#f8f5ec" opacity="0.95"/>
    <path d="M0 0 Q11-3 16 3 L16 15 Q11 9 0 6 Z" fill="#ede8da" opacity="0.9"/>
    <line x1="0" y1="-1" x2="0" y2="16" stroke="url(#g-gold)" stroke-width="1.2"/>
  </g>
  <!-- Diamond -->
  <path d="M32 9 l3 4.5-3 4.5-3-4.5z" fill="url(#g-gold)" opacity="0.85"/>
</svg>
