<svg xmlns="http://www.w3.org/2000/svg" viewBox="0 0 128 128" role="img" aria-label="Salaf Library">
  <defs>
    <linearGradient id="ink" x1="0" x2="1" y1="0" y2="1">
      <stop offset="0" stop-color="#182018"/>
      <stop offset="1" stop-color="#050705"/>
    </linearGradient>
    <linearGradient id="green" x1="0" x2="1" y1="0" y2="1">
      <stop offset="0" stop-color="#365434"/>
      <stop offset="1" stop-color="#0f3d2e"/>
    </linearGradient>
    <linearGradient id="gold" x1="0" x2="1" y1="0" y2="1">
      <stop offset="0" stop-color="#e6c978"/>
      <stop offset="1" stop-color="#a7833b"/>
    </linearGradient>
  </defs>
  <rect x="25" y="16" width="78" height="96" rx="7" fill="none" stroke="url(#ink)" stroke-width="7"/>
  <path d="M65 13c18 19 17 36 8 49 9-5 15-13 18-23 4 24-5 42-20 54l-5 24-6-24C45 80 38 63 43 43c4 9 10 16 18 20-9-18-7-34 4-50Z" fill="url(#ink)"/>
  <path d="M64 29v72" stroke="#f8f5ec" stroke-width="3" stroke-linecap="round" opacity=".9"/>
  <path d="M43 80c7-8 14-8 20 0M84 80c-7-8-14-8-20 0" stroke="url(#green)" stroke-width="7" stroke-linecap="round" fill="none"/>
  <path d="M50 92h12M78 92h12" stroke="url(#green)" stroke-width="7" stroke-linecap="round"/>
  <path d="M27 110h76" stroke="url(#gold)" stroke-width="3" stroke-linecap="round" opacity=".85"/>
</svg>
