<svg xmlns="http://www.w3.org/2000/svg" viewBox="0 0 520 180" role="img" aria-label="Salaf Library">
  <defs>
    <linearGradient id="ink" x1="0" x2="1" y1="0" y2="1"><stop offset="0" stop-color="#182018"/><stop offset="1" stop-color="#050705"/></linearGradient>
    <linearGradient id="green" x1="0" x2="1" y1="0" y2="1"><stop offset="0" stop-color="#365434"/><stop offset="1" stop-color="#0f3d2e"/></linearGradient>
    <linearGradient id="gold" x1="0" x2="1" y1="0" y2="1"><stop offset="0" stop-color="#e6c978"/><stop offset="1" stop-color="#a7833b"/></linearGradient>
  </defs>
  <g transform="translate(26 8) scale(1.05)">
    <rect x="25" y="16" width="78" height="96" rx="7" fill="none" stroke="url(#ink)" stroke-width="7"/>
    <path d="M65 13c18 19 17 36 8 49 9-5 15-13 18-23 4 24-5 42-20 54l-5 24-6-24C45 80 38 63 43 43c4 9 10 16 18 20-9-18-7-34 4-50Z" fill="url(#ink)"/>
    <path d="M64 29v72" stroke="#f8f5ec" stroke-width="3" stroke-linecap="round" opacity=".9"/>
    <path d="M43 80c7-8 14-8 20 0M84 80c-7-8-14-8-20 0" stroke="url(#green)" stroke-width="7" stroke-linecap="round" fill="none"/>
    <path d="M50 92h12M78 92h12" stroke="url(#green)" stroke-width="7" stroke-linecap="round"/>
  </g>
  <text x="176" y="70" fill="#11140f" font-family="Georgia, 'Times New Roman', serif" font-size="42" font-weight="700">مكتبة السلف</text>
  <path d="M178 91h238" stroke="url(#green)" stroke-width="2" stroke-linecap="round"/>
  <path d="M290 91l9-7 9 7-9 7-9-7Z" fill="url(#green)"/>
  <text x="176" y="132" fill="#11140f" font-family="Georgia, 'Times New Roman', serif" font-size="34" letter-spacing="7">SALAF LIBRARY</text>
  <text x="178" y="160" fill="#0f3d2e" font-family="Inter, Arial, sans-serif" font-size="14" font-weight="700" letter-spacing="4">KNOWLEDGE  |  HERITAGE  |  GUIDANCE</text>
</svg>
